<mxfile host="app.diagrams.net" agent="Mozilla/5.0 (Windows NT 10.0; Win64; x64) AppleWebKit/537.36 (KHTML, like Gecko) Chrome/140.0.0.0 Safari/537.36" version="28.2.5">
  <diagram name="Page-1" id="7XUURtsWi7NvFYTWN6Y5">
    <mxGraphModel dx="927" dy="1851" grid="1" gridSize="10" guides="1" tooltips="1" connect="1" arrows="1" fold="1" page="1" pageScale="1" pageWidth="850" pageHeight="1100" math="0" shadow="0">
      <root>
        <mxCell id="0" />
        <mxCell id="1" parent="0" />
        <mxCell id="gx6_36p2fhPoFDvD785E-1" value="Organization&lt;div&gt;* Name&lt;/div&gt;" style="rounded=1;whiteSpace=wrap;html=1;verticalAlign=top;align=left;spacingTop=0;spacingLeft=5;" vertex="1" parent="1">
          <mxGeometry x="340" y="-300" width="130" height="50" as="geometry" />
        </mxCell>
        <mxCell id="gx6_36p2fhPoFDvD785E-2" value="LegalOrganization&lt;div&gt;o FederalTaxIdNum&lt;/div&gt;" style="rounded=1;whiteSpace=wrap;html=1;verticalAlign=top;align=left;spacingTop=0;spacingLeft=5;" vertex="1" parent="1">
          <mxGeometry x="140" y="-200" width="170" height="50" as="geometry" />
        </mxCell>
        <mxCell id="gx6_36p2fhPoFDvD785E-3" value="InformalOrganization&lt;div&gt;&lt;br&gt;&lt;/div&gt;" style="rounded=1;whiteSpace=wrap;html=1;verticalAlign=top;align=left;spacingTop=0;spacingLeft=5;" vertex="1" parent="1">
          <mxGeometry x="500" y="-200" width="170" height="50" as="geometry" />
        </mxCell>
        <mxCell id="gx6_36p2fhPoFDvD785E-4" value="Corporation" style="rounded=1;whiteSpace=wrap;html=1;verticalAlign=top;align=left;spacingTop=0;spacingLeft=5;" vertex="1" parent="1">
          <mxGeometry x="80" y="-90" width="130" height="50" as="geometry" />
        </mxCell>
        <mxCell id="gx6_36p2fhPoFDvD785E-5" value="GovernmentAgency" style="rounded=1;whiteSpace=wrap;html=1;verticalAlign=top;align=left;spacingTop=0;spacingLeft=5;" vertex="1" parent="1">
          <mxGeometry x="230" y="-90" width="130" height="50" as="geometry" />
        </mxCell>
        <mxCell id="gx6_36p2fhPoFDvD785E-6" value="Team" style="rounded=1;whiteSpace=wrap;html=1;verticalAlign=top;align=left;spacingTop=0;spacingLeft=5;" vertex="1" parent="1">
          <mxGeometry x="410" y="-90" width="100" height="50" as="geometry" />
        </mxCell>
        <mxCell id="gx6_36p2fhPoFDvD785E-7" value="Family" style="rounded=1;whiteSpace=wrap;html=1;verticalAlign=top;align=left;spacingTop=0;spacingLeft=5;" vertex="1" parent="1">
          <mxGeometry x="530" y="-90" width="100" height="50" as="geometry" />
        </mxCell>
        <mxCell id="gx6_36p2fhPoFDvD785E-8" value="OtherInformalOrganization" style="rounded=1;whiteSpace=wrap;html=1;verticalAlign=top;align=left;spacingTop=0;spacingLeft=5;" vertex="1" parent="1">
          <mxGeometry x="650" y="-90" width="180" height="50" as="geometry" />
        </mxCell>
        <mxCell id="gx6_36p2fhPoFDvD785E-9" value="extends" style="endArrow=block;endSize=16;endFill=0;html=1;rounded=0;" edge="1" parent="1" source="gx6_36p2fhPoFDvD785E-2" target="gx6_36p2fhPoFDvD785E-1">
          <mxGeometry width="160" relative="1" as="geometry">
            <mxPoint x="290" y="-80" as="sourcePoint" />
            <mxPoint x="450" y="-80" as="targetPoint" />
          </mxGeometry>
        </mxCell>
        <mxCell id="gx6_36p2fhPoFDvD785E-10" value="" style="endArrow=block;endSize=16;endFill=0;html=1;rounded=0;" edge="1" parent="1" source="gx6_36p2fhPoFDvD785E-3" target="gx6_36p2fhPoFDvD785E-1">
          <mxGeometry width="160" relative="1" as="geometry">
            <mxPoint x="470" y="-180" as="sourcePoint" />
            <mxPoint x="530" y="-230" as="targetPoint" />
          </mxGeometry>
        </mxCell>
        <mxCell id="gx6_36p2fhPoFDvD785E-12" value="extends" style="edgeLabel;html=1;align=center;verticalAlign=middle;resizable=0;points=[];" vertex="1" connectable="0" parent="gx6_36p2fhPoFDvD785E-10">
          <mxGeometry x="0.0075" relative="1" as="geometry">
            <mxPoint as="offset" />
          </mxGeometry>
        </mxCell>
        <mxCell id="gx6_36p2fhPoFDvD785E-11" value="" style="endArrow=block;endSize=16;endFill=0;html=1;rounded=0;" edge="1" parent="1" source="gx6_36p2fhPoFDvD785E-4" target="gx6_36p2fhPoFDvD785E-2">
          <mxGeometry width="160" relative="1" as="geometry">
            <mxPoint x="340" y="-110" as="sourcePoint" />
            <mxPoint x="400" y="-160" as="targetPoint" />
          </mxGeometry>
        </mxCell>
        <mxCell id="gx6_36p2fhPoFDvD785E-13" value="extends" style="edgeLabel;html=1;align=center;verticalAlign=middle;resizable=0;points=[];" vertex="1" connectable="0" parent="gx6_36p2fhPoFDvD785E-11">
          <mxGeometry x="-0.1951" relative="1" as="geometry">
            <mxPoint as="offset" />
          </mxGeometry>
        </mxCell>
        <mxCell id="gx6_36p2fhPoFDvD785E-14" value="" style="endArrow=block;endSize=16;endFill=0;html=1;rounded=0;" edge="1" parent="1" source="gx6_36p2fhPoFDvD785E-5" target="gx6_36p2fhPoFDvD785E-2">
          <mxGeometry width="160" relative="1" as="geometry">
            <mxPoint x="330" y="-60" as="sourcePoint" />
            <mxPoint x="370" y="-110" as="targetPoint" />
          </mxGeometry>
        </mxCell>
        <mxCell id="gx6_36p2fhPoFDvD785E-15" value="extends" style="edgeLabel;html=1;align=center;verticalAlign=middle;resizable=0;points=[];" vertex="1" connectable="0" parent="gx6_36p2fhPoFDvD785E-14">
          <mxGeometry x="-0.1951" relative="1" as="geometry">
            <mxPoint as="offset" />
          </mxGeometry>
        </mxCell>
        <mxCell id="gx6_36p2fhPoFDvD785E-16" value="" style="endArrow=block;endSize=16;endFill=0;html=1;rounded=0;" edge="1" parent="1" source="gx6_36p2fhPoFDvD785E-6" target="gx6_36p2fhPoFDvD785E-3">
          <mxGeometry width="160" relative="1" as="geometry">
            <mxPoint x="460" y="-60" as="sourcePoint" />
            <mxPoint x="500" y="-110" as="targetPoint" />
          </mxGeometry>
        </mxCell>
        <mxCell id="gx6_36p2fhPoFDvD785E-17" value="extends" style="edgeLabel;html=1;align=center;verticalAlign=middle;resizable=0;points=[];" vertex="1" connectable="0" parent="gx6_36p2fhPoFDvD785E-16">
          <mxGeometry x="-0.1951" relative="1" as="geometry">
            <mxPoint as="offset" />
          </mxGeometry>
        </mxCell>
        <mxCell id="gx6_36p2fhPoFDvD785E-18" value="" style="endArrow=block;endSize=16;endFill=0;html=1;rounded=0;" edge="1" parent="1" source="gx6_36p2fhPoFDvD785E-7" target="gx6_36p2fhPoFDvD785E-3">
          <mxGeometry width="160" relative="1" as="geometry">
            <mxPoint x="570" y="-60" as="sourcePoint" />
            <mxPoint x="610" y="-110" as="targetPoint" />
          </mxGeometry>
        </mxCell>
        <mxCell id="gx6_36p2fhPoFDvD785E-19" value="extends" style="edgeLabel;html=1;align=center;verticalAlign=middle;resizable=0;points=[];" vertex="1" connectable="0" parent="gx6_36p2fhPoFDvD785E-18">
          <mxGeometry x="-0.1951" relative="1" as="geometry">
            <mxPoint as="offset" />
          </mxGeometry>
        </mxCell>
        <mxCell id="gx6_36p2fhPoFDvD785E-20" value="" style="endArrow=block;endSize=16;endFill=0;html=1;rounded=0;" edge="1" parent="1" source="gx6_36p2fhPoFDvD785E-8" target="gx6_36p2fhPoFDvD785E-3">
          <mxGeometry width="160" relative="1" as="geometry">
            <mxPoint x="650" y="-90" as="sourcePoint" />
            <mxPoint x="690" y="-140" as="targetPoint" />
          </mxGeometry>
        </mxCell>
        <mxCell id="gx6_36p2fhPoFDvD785E-21" value="extends" style="edgeLabel;html=1;align=center;verticalAlign=middle;resizable=0;points=[];" vertex="1" connectable="0" parent="gx6_36p2fhPoFDvD785E-20">
          <mxGeometry x="-0.1951" relative="1" as="geometry">
            <mxPoint as="offset" />
          </mxGeometry>
        </mxCell>
      </root>
    </mxGraphModel>
  </diagram>
</mxfile>
